<svg xmlns="http://www.w3.org/2000/svg" version="1.1" xmlns:xlink="http://www.w3.org/1999/xlink" xmlns:svgjs="http://svgjs.com/svgjs" width="100" height="100" x="0" y="0" viewBox="0 0 512 512" style="enable-background:new 0 0 512 512" xml:space="preserve" class=""><g><g xmlns="http://www.w3.org/2000/svg"><path d="m385.068 400.548-172.11 65.44c-197.246-63.435-151.776-48.813-203.49-65.44-24.07-156.03 69.58-289.05 70.59-290.47-.01 0-.01 0-.02-.01-27.59-7.91-45.54-19.15-41.88-33.13 2.27-8.67 5.82-17.24 9.95-25.3 13.79-26.96 33.97-48.21 33.97-48.21 108.47-6.44 218.73 10.76 218.73 10.76 114.74 87.85 84.26 386.36 84.26 386.36z" fill="#ffebd4" data-original="#ffebd4" class=""></path><path d="m50.118 413.618-40.65-13.07c-24.07-156.03 69.58-289.05 70.59-290.47-.01 0-.01 0-.02-.01-27.59-7.91-45.54-19.15-41.88-33.13 2.27-8.67 5.82-17.24 9.95-25.3 66.69-12.61 111.41 48.42 111.41 48.42s-127.53 130.21-109.4 313.56z" fill="#ffd5b8" data-original="#ffd5b8" class=""></path><path d="m385.068 400.548c-125.818 47.845-89.215 33.928-172.11 65.44 138.22-266.71 100.8-414.76 90.18-445.68l-2.33-6.12c114.74 87.85 84.26 386.36 84.26 386.36z" fill="#ffc7a1" data-original="#ffc7a1" class=""></path><path d="m310.668 344.078-31.84 96.87-65.87 25.04c138.22-266.71 100.8-414.76 90.18-445.68l-2.33-6.12c27.84 36.2 37.49 121.51 37.49 121.51 12.84 111.11-27.63 208.38-27.63 208.38z" fill="#ffd5b8" data-original="#ffd5b8" class=""></path><path d="m128.445 306.248c.3.17.61.32.92.47 23.09 11.27 57.17.35 80.93-27.45 24.93-29.16 29.74-66.63 12.22-87.19-13.6 7.73-29.83 22.66-36.12 51.08-6.468 29.281-25.885 51.812-57.95 63.09z" fill="#f0b48f" data-original="#f0b48f" class=""></path><path d="m110.095 290.208c18.32-4.38 47.12-16.73 54.78-51.36 6.77-30.63 23.14-48.6 37.36-58.79-5-1.58-10.4-2.27-15.99-2.11-19.81.57-42.22 11.81-59.3 31.8-22.39 26.2-28.54 59.14-16.85 80.46z" fill="#f0b48f" data-original="#f0b48f" class=""></path><path d="m385.068 400.548-172.11 65.44c1.197-1.494-7.385 9.216 97.71-121.91z" fill="#ffc7a1" data-original="#ffc7a1" class=""></path><path d="m80.042 110.069h.02v.01c46.76 13.37 121.2 17.12 165.17 8.1-13.895-26.35 14.766-63.1 35.35-84.7 11.1-11.65 20.23-19.29 20.23-19.29s-110.26-17.199-218.73-10.759c0 0-34.06 35.86-43.92 73.51-3.66 13.98 14.29 25.22 41.88 33.129z" fill="#ffd5b8" data-original="#ffd5b8" class=""></path><path d="m245.232 118.18c68.76-14.11 64.92-61.76 35.35-84.7-20.534 21.549-49.256 58.329-35.35 84.7z" fill="#ffc7a1" data-original="#ffc7a1" class=""></path><g><path d="m423.078 424.818c-25.52-14.83-52.48-30.42-52.48-30.42-13.82 32.15-36.6 77.58-40.69 38.87-5.97-56.29-1.04-122.56-1.04-122.56s5.31-7.92 13.44-17.56c18.75-22.22 52.52-53.6 70.9-18.2 26.3 50.655 35.403 164.719 9.87 149.87z" fill="#fae26b" data-original="#fae26b" class=""></path><path d="m438.208 393.258c-.27 22.89-4.95 37.48-15.13 31.56-25.52-14.83-52.48-30.42-52.48-30.42-13.82 32.15-36.6 77.58-40.69 38.87-5.97-56.29-1.04-122.56-1.04-122.56s5.31-7.92 13.44-17.56c6.8 5.83 15.09 13.63 25.45 23.34 0 0-4.28 42.5-6.28 55.5s24.66-23 26.83-27.75c2.04-4.47 15.44 28.45 49.9 49.02z" fill="#edd15a" data-original="#edd15a" class=""></path><path d="m460.458 222.588c3.3-6.63 2.48-12.98-2.48-18.56-3.14-3.54-6.75-6.58-9.56-10.39-5.305-7.182-3.327-15.106-4.09-26.1-.41-5.87-3.38-9.91-8.39-11.6-4.76-1.6-9.59-2.94-14.42-4.18-3.16-.8-5.4-2.43-6.88-5.95-1.83-4.33-4.12-8.45-6.31-12.59-3.99-7.52-9.24-9.82-16.49-7.35-4.1 1.41-8.13 3.15-12.33 4.06-2.142.472-4.836-.084-6.71-1.16-4.32-2.46-8.32-5.71-12.55-8.42-5.73-3.67-11.39-2.59-15.76 2.77-1.59 1.95-3.54 3.65-4.71 5.91-4.21 8.12-10.86 9.16-18.38 8.16-2.09-.28-4.19-.43-6.27-.42-6.62.04-10.61 3.4-12.24 10.6-1.08 4.71-1.92 9.51-2.63 14.32-.58 3.93-2.03 6.74-5.34 8.5-3.98 2.13-7.79 4.67-11.55 7.26-5.37 3.7-7.08 9.03-5.27 16.04 1.29 4.93 2.52 9.9 4.14 14.7 1.34 3.98.66 7.23-1.19 10.52-1.97 3.51-3.75 7.18-5.56 10.81-3.87 7.77-3.14 13.33 2.65 19.71 2.3 2.52 4.53 5.19 7.1 7.31 4.72 3.9 6.21 9.01 5.82 15.17-.16 2.53-.08 5.08-.06 7.62.14 11.55 1.95 14.54 11.83 19.03 0 0 8.08.26 11.71 2.78 2.18 1.23 4.57 2.81 5.92 4.97 2.87 4.64 4.98 9.87 7.67 14.67 3.45 6.13 8.38 8.14 14.43 6.28 4.84-1.51 9.64-3.2 14.54-4.47 1.597-.399 3.791.251 4.51.97.26.08 4.52 1.54 8.21 5.06 9.48 8.38 17.97 8.38 24.84-3.88 0 0 3.28-5.09 6.61-6.85.85-1.23 2.56-2.21 3.99-2.26 4.9-.22 9.83.07 14.75.07 15.743.02 12.067-15.562 16.03-27.04.92-2.72 3.67-4.86 6.05-6.4 0 0 4.31-3.47 8.58-5.07 8.69-8.78 9.21-11.42 5.22-24.08-.96-3.08-2.13-6.18-2.49-9.33-.32-2.84-.23-6.08.72-8.59 1.7-4.42 4.24-8.39 6.34-12.6z" fill="#c5c5fe" data-original="#c5c5fe" class=""></path><path d="m372.798 128.768c-4.32-2.46-8.32-5.71-12.55-8.42-5.73-3.67-11.39-2.59-15.76 2.77-1.59 1.95-3.54 3.65-4.71 5.91-4.21 8.12-10.86 9.16-18.38 8.16-2.09-.28-4.19-.43-6.27-.42-6.62.04-10.61 3.4-12.24 10.6-1.08 4.71-1.92 9.51-2.63 14.32-.58 3.93-2.03 6.74-5.34 8.5-3.98 2.13-7.79 4.67-11.55 7.26-5.37 3.7-7.08 9.03-5.27 16.04 1.29 4.93 2.52 9.9 4.14 14.7 1.34 3.98.66 7.23-1.19 10.52-1.97 3.51-3.75 7.18-5.56 10.81-3.87 7.77-3.14 13.33 2.65 19.71 2.3 2.52 4.53 5.19 7.1 7.31 4.72 3.9 6.21 9.01 5.82 15.17-.16 2.53-.08 5.08-.06 7.62.14 11.55 1.95 14.54 11.83 19.03 0 0 8.08.26 11.71 2.78 2.18 1.23 4.57 2.81 5.92 4.97l-3.5-23.99c.39-6.17-1.1-11.28-5.82-15.17-2.57-2.12-4.8-4.8-7.1-7.32-5.78-6.38-6.52-11.94-2.65-19.7 1.81-3.63 3.59-7.3 5.56-10.81 1.85-3.3 2.54-6.54 1.19-10.52-1.61-4.8-2.85-9.77-4.13-14.71-1.82-7-.11-12.33 5.26-16.04 3.76-2.59 7.57-5.12 11.56-7.25 3.31-1.76 4.75-4.58 5.33-8.51.72-4.8 1.56-9.61 2.63-14.31 1.64-7.21 5.63-10.56 12.24-10.6 2.09-.01 4.19.14 6.27.41 0 0 19.14 2.24 28.66-17.68-1.12-.21-2.22-.6-3.16-1.14z" fill="#a3a3f5" data-original="#a3a3f5" class=""></path><path d="m418.018 225.268c-1.23 1.61-1.55 3.95-.85 6.27l9.42 31c1.93 6.35-2.95 11.5-8.31 8.59l-27.44-14.93c-2.14-1.17-4.55-1.12-6.45.13l-25.65 16.85c-5.214 3.479-12.142-1.549-11.43-8.55l3.34-33.32c.25-2.46-.67-4.96-2.45-6.7l-22.58-22.05c-4.36-4.27-2.19-11.28 3.57-11.88l28.29-2.95c2.13-.23 3.88-1.5 4.67-3.4l9.72-23.24c1.8-4.3 8.24-3.84 10.97.75 2.404 4.058-.198-.322 14.32 24.1 1.15 1.93 3.05 3.32 5.08 3.71l25.6 4.9c4.9.94 7.99 7.44 5.2 11.09z" fill="#fae26b" data-original="#fae26b" class=""></path><path d="m384.698 164.978c-6.455 13.84-2.854 6.083-16.08 34.66-.57 1.24-1.75 2.03-3.14 2.11l-12.2.68c-3.78.21-5.09 5.03-2.05 7.76l13.23 11.91c1.33 1.2 1.98 3.05 1.67 4.77-5.904 32.739-4.015 22.201-8.41 46.87-5.12 2.28-11.07-2.62-10.41-9.11l3.34-33.32c.25-2.46-.67-4.96-2.45-6.7l-22.58-22.05c-4.36-4.27-2.19-11.28 3.57-11.88l28.29-2.95c2.13-.23 3.88-1.5 4.67-3.4l9.72-23.24c1.8-4.3 8.24-3.84 10.97.75z" fill="#edd15a" data-original="#edd15a" class=""></path></g></g><g xmlns="http://www.w3.org/2000/svg"><path d="m221.527 190.34c-13.302 7.561-30.533 22.787-37.085 52.387-6.819 30.873-27.66 51.439-56.66 61.635-1.614.569-1.817 2.783-.32 3.628.337.19.683.36 1.026.527 6.362 3.104 13.458 4.592 20.901 4.592 20.99 0 44.725-11.829 62.427-32.54 25.334-29.634 30.588-68.233 12.222-89.787-.624-.733-1.678-.919-2.511-.442zm-12.752 87.629c-21.675 25.361-52.568 36.861-75.064 28.442.101-.04 2.858-1.146 2.758-1.146 27.666-11.946 45.605-33.273 51.88-61.674 5.995-27.091 21.327-41.491 33.698-48.923 15.82 20.311 10.289 55.741-13.272 83.301z" fill="#000000" data-original="#000000" class=""></path><path d="m166.828 239.28c6.813-30.826 23.647-48.336 36.571-57.596 1.336-.958 1.008-3.037-.563-3.533-5.158-1.63-10.751-2.372-16.649-2.202-21.182.609-43.897 12.759-60.764 32.499-22.395 26.207-29.42 60.223-17.083 82.722.44.8 1.353 1.19 2.219.983 17.577-4.202 48.259-16.658 56.269-52.873zm-55.691 48.61c-10.546-21.078-3.558-52.402 17.328-76.843 16.146-18.896 37.767-30.521 57.838-31.1 3.816-.11 7.671.19 11.435.992-12.922 10.192-28.3 27.998-34.815 57.478-7.318 33.08-34.928 45.146-51.786 49.473z" fill="#000000" data-original="#000000" class=""></path><path d="m344.97 340.185c.141-1.096-.633-2.098-1.729-2.238-1.098-.152-2.099.633-2.238 1.729-4.045 31.49.197 74.48.24 74.911.104 1.031.974 1.8 1.988 1.8 1.192 0 2.11-1.029 1.992-2.2-.042-.426-4.24-42.961-.253-74.002z" fill="#000000" data-original="#000000" class=""></path><path d="m462.245 223.478c3.688-7.412 2.729-14.599-2.771-20.777-5.538-6.251-11.646-10.23-12.551-18.101-.621-5.491-.198-11.463-.604-17.203-.46-6.652-3.92-11.395-9.743-13.354-4.199-1.415-8.827-2.757-14.566-4.221-2.792-.709-4.393-2.097-5.523-4.793-1.777-4.208-4.018-8.293-6.392-12.745-4.46-8.412-10.642-11.132-18.906-8.308-4.101 1.41-8.054 3.12-12.109 3.996-1.574.344-3.699-.033-5.291-.944-1.921-1.09-3.824-2.38-5.688-3.688-12.231-41.985-31.669-83.772-66.06-110.728-.3-.235-.653-.338-.832-.374-.031-.006-.06-.021-.091-.026-1.105-.173-111.721-17.16-219.157-10.78-.507.029-.982.251-1.332.619-1.407 1.48-34.529 36.667-44.406 74.381-3.587 13.699 10.453 25.702 40.636 34.787-5.679 8.495-25.745 39.959-43.365 85.393-18.77 48.396-38.517 123.116-26.002 204.24.115.749.644 1.367 1.364 1.6 212.662 68.39 203.597 65.536 204.101 65.536.57 0-5.93 2.395 114.128-43.256.251 2.936.527 5.855.834 8.747.727 6.886 2.375 16.703 9.247 16.703 3.839 0 13.177-4.093 34.377-52.927 6.626 3.833 29.087 16.832 50.53 29.293 4.643 2.695 7.969 1.47 9.941-.035 12.871-9.817 9.406-66.75-2.271-111.761 6.757-5.574 5.186-16.728 8.185-25.451.578-1.692 2.295-3.447 5.25-5.364.22-.141 4.208-3.377 8.194-4.871.271-.102.517-.261.72-.467 9.176-9.28 9.923-12.694 5.709-26.091-.958-3.055-2.08-6.035-2.411-8.954-.34-3.021-.126-5.741.601-7.653 1.627-4.255 4.168-8.227 6.254-12.423zm-422.153-146.033c8.945-34.155 38.563-67.337 42.905-72.067 94.831-5.528 191.958 7.143 213.227 10.161-26.125 23.3-67.717 68.954-53.904 101.177-41.173 7.799-112 5.484-161.731-8.57-16.861-4.835-44.542-15.251-40.497-30.701zm240.678-41.251c13.78 11.405 20.474 27.84 17.103 42.32-4.156 17.856-22.44 31.095-51.539 37.383-11.489-24.805 15.687-59.759 34.436-79.703zm-68.818 427.369-200.693-64.541c-11.996-79.779 7.465-153.266 25.964-200.965 18.392-47.423 39.395-79.384 43.672-85.669 46.975 13.1 120.538 16.819 164.74 7.75 42.632-8.748 53.47-29.266 56.136-40.718 3.696-15.876-3.44-33.763-18.234-46.125 7.928-8.196 14.671-14.206 17.331-16.517 26.68 20.998 47.507 55.582 61.963 102.888-.5-.337-.995-.68-1.5-1.004-6.5-4.152-13.375-2.96-18.396 3.192-1.56 1.923-3.616 3.709-4.928 6.252-5.154 9.938-13.587 7.02-20.775 6.714.821-16.801.738-33.119-.266-48.522-.072-1.103-1.045-1.944-2.126-1.866-1.103.072-1.938 1.024-1.866 2.126 1.001 15.332 1.079 31.585.251 48.326-6.49.674-10.625 4.71-12.287 12.042-.979 4.295-1.849 9.027-2.658 14.47-.54 3.657-1.784 5.694-4.297 7.032-4.108 2.191-8.075 4.839-11.749 7.372-6.07 4.187-8.111 10.308-6.065 18.192 1.295 4.996 2.569 10.067 4.176 14.837 1.04 3.082.729 5.745-1.04 8.903-1.934 3.447-3.727 7.113-5.606 10.898-4.265 8.563-3.407 14.919 2.961 21.938.051.102-.36-.409 1.358 1.507 1.856 2.071 3.775 4.213 5.949 6.008 3.859 3.185 5.479 7.476 5.097 13.503-.048.761-.07 1.523-.084 2.285-17.08 60-42.996 123.813-77.028 189.692zm5.153-1.292c31.233-60.861 55.561-119.958 72.385-175.913 1.088 7.001 4.236 10.219 12.506 13.82 2.325 1.012 8.829.814 11.398 2.603.556.381 3.875 1.993 5.36 4.384.474.767.927 1.563 1.371 2.371-5.554 19.382-10.442 31.655-11.199 33.519l-49.639 61.934c-.69.862-.552 2.121.31 2.812.863.692 2.123.551 2.812-.31l48.603-60.641 14.036 10.654c-.25 18.768.023 41.25 1.701 63.079zm105.677-147.556c1.115 2.27 2.22 4.53 3.438 6.729-.375 7.107-.85 18.021-1.094 31.097l-12.035-9.135c1.414-3.59 5.259-13.749 9.691-28.691zm106.806 108.617c-.945.721-2.545 1.478-5.506-.243-21.938-12.749-44.924-26.049-50.951-29.536 5.863-13.745 10.015-24.821 10.057-24.936.387-1.034-.138-2.187-1.173-2.573-1.03-.389-2.186.138-2.573 1.173-5.507 14.486-10.736 26.516-10.693 26.416-22.028 51.239-30.625 52.722-32.126 52.489-.798-.12-3.497-1.42-4.727-13.064-4.209-39.66-2.949-84.643-1.918-106.656 3.548 3.256 8.015 4.152 13.17 2.562 4.823-1.502 9.648-3.192 14.447-4.434.805-.206 2.071.06 2.737.566.194.16.423.283.661.361.039.013 3.998 1.327 7.498 4.661 11.152 9.848 20.836 8.167 27.883-4.35.868-1.333 3.511-5.176 5.572-6.787.994-.777 2.594-1.331 3.4-1.36 10.147-.433 15.693.942 20.785-.854 11.897 46.47 13.675 98.771 3.457 106.565zm21.826-179.329c.388 3.415 1.623 6.659 2.568 9.702 3.732 11.865 3.391 13.824-4.437 21.777-4.089 1.635-7.994 4.651-8.627 5.151-2.378 1.55-5.621 3.984-6.776 7.371-4.12 11.979-.337 25.698-14.114 25.698-4.884 0-9.854-.294-14.84-.078-1.895.069-3.765.911-5.464 2.466-2.964 2.747-6.392 7.017-6.743 7.561-.022.035-.044.069-.063.105-5.803 10.345-12.565 11.496-21.722 3.416-3.496-3.333-7.463-4.967-8.637-5.402-1.646-1.147-4.042-1.605-5.961-1.114-4.984 1.29-9.875 3.008-14.634 4.486-5.21 1.609-9.166-.139-12.091-5.343-1.695-3.021-5.313-10.629-5.913-11.577-2.184-4.06-3.249-5.891-8.365-8.782-3.655-2.48-9.798-1.91-12.299-3.066-8.813-4.047-10.172-6.383-10.296-17.064-.031-2.581-.095-5.151.051-7.47.465-7.316-1.676-12.825-6.543-16.841-2.441-2.016-4.686-4.702-6.895-7.121-5.193-5.727-5.827-10.461-2.34-17.464 1.825-3.675 3.641-7.385 5.516-10.726 2.315-4.134 2.741-7.99 1.341-12.138-1.573-4.667-2.822-9.664-4.095-14.564-1.623-6.258-.204-10.673 4.466-13.894 3.576-2.467 7.428-5.038 11.358-7.135 3.628-1.932 5.653-5.103 6.373-9.977.794-5.338 1.645-9.972 2.602-14.168 2.026-8.932 7.362-9.833 16.295-8.644 6.815.905 15.294.676 20.427-9.225 1.007-1.95 2.88-3.599 4.478-5.564 3.77-4.619 8.313-5.432 13.138-2.349 4.178 2.679 8.22 5.967 12.634 8.473 2.423 1.386 5.611 1.927 8.121 1.378 4.366-.944 8.508-2.73 12.557-4.121 6.341-2.167 10.55-.253 14.075 6.396 2.262 4.246 4.532 8.383 6.239 12.426 1.611 3.839 4.225 6.101 8.224 7.116 5.638 1.438 10.174 2.753 14.276 4.136 4.253 1.431 6.684 4.832 7.029 9.842.407 5.742-.046 11.482.62 17.377 1.082 9.418 7.73 13.751 13.534 20.304 4.39 4.93 5.123 10.428 2.181 16.34-4.847 9.75-8.304 12.903-7.248 22.306z" fill="#000000" data-original="#000000" class=""></path><path d="m310.406 189.497c4.137-2.852 7.651-5.156 11.359-7.135 3.628-1.932 5.653-5.103 6.373-9.977.794-5.341 1.645-9.974 2.602-14.167 2.029-8.945 7.375-9.828 16.295-8.644 1.082.143 2.101-.622 2.246-1.719.146-1.095-.624-2.101-1.719-2.246-2.256-.3-4.453-.45-6.547-.434-7.587.043-12.356 4.133-14.176 12.154-.979 4.292-1.849 9.023-2.658 14.469-.54 3.657-1.784 5.694-4.297 7.032-4.104 2.19-8.072 4.838-11.749 7.372-6.07 4.188-8.111 10.308-6.064 18.191 1.305 5.041 2.57 10.071 4.175 14.839 1.04 3.082.729 5.744-1.04 8.902-1.93 3.44-3.728 7.114-5.606 10.898-4.265 8.564-3.407 14.92 2.965 21.942 2.321 2.546 4.615 5.291 7.304 7.511 3.859 3.185 5.479 7.476 5.097 13.502-.073 1.149.837 2.127 1.998 2.127 1.047 0 1.927-.814 1.994-1.873.465-7.316-1.676-12.825-6.543-16.841-2.435-2.011-4.674-4.687-6.891-7.117-5.197-5.728-5.832-10.462-2.344-17.468 1.826-3.675 3.621-7.349 5.516-10.726 2.315-4.133 2.741-7.989 1.341-12.136-1.574-4.674-2.827-9.685-4.094-14.567-1.625-6.253-.206-10.668 4.463-13.889z" fill="#000000" data-original="#000000" class=""></path><path d="m428.211 192.587-25.599-4.906c-1.458-.28-2.889-1.338-3.733-2.76l-14.325-24.107c-3.609-6.071-12.109-6.293-14.531-.495l-9.719 23.236c-.51 1.221-1.643 2.035-3.03 2.181l-28.296 2.956c-7.386.771-10.373 9.808-4.756 15.293l22.583 22.058c1.349 1.317 2.043 3.211 1.856 5.063l-3.345 33.327c-.862 8.583 7.771 14.845 14.521 10.415l25.646-16.853c1.288-.846 2.891-.86 4.396-.041l27.443 14.928c6.951 3.779 13.628-2.865 11.179-10.926l-9.416-31.001c-.516-1.699-.321-3.369.52-4.469l15.024-19.638c3.687-4.817-.022-13.036-6.418-14.261zm3.241 11.832-15.023 19.637c-1.622 2.119-2.06 5.133-1.171 8.062l9.416 31.001c1.338 4.402-1.515 8.381-5.438 6.25l-27.443-14.928c-2.803-1.525-5.982-1.444-8.505.212l-25.646 16.852c-3.908 2.576-8.866-1.465-8.344-6.672l3.345-33.326c.307-3.053-.83-6.165-3.042-8.325l-22.583-22.058c-3.141-3.068-1.706-8.027 2.377-8.453l28.296-2.956c2.865-.3 5.222-2.025 6.305-4.616l9.718-23.236c1.201-2.871 5.625-1.994 7.402.995l14.325 24.107c1.434 2.412 3.833 4.148 6.419 4.645l25.6 4.906c3.528.675 5.816 5.522 3.992 7.903z" fill="#000000" data-original="#000000" class=""></path><path d="m380.476 174.018c-.998-.46-2.189-.026-2.655.976l-11.018 23.806c-.263.567-.786.913-1.435.949l-12.198.681c-5.549.309-7.656 7.312-3.281 11.249l13.229 11.909c.822.74 1.232 1.889 1.046 2.926l-4.924 27.276c-.196 1.087.525 2.127 1.612 2.323 1.066.199 2.126-.513 2.323-1.612l4.924-27.276c.435-2.405-.449-4.938-2.306-6.609l-13.229-11.909c-1.619-1.458-1.251-4.166.828-4.282l12.198-.681c2.14-.119 3.95-1.338 4.842-3.263l11.019-23.807c.464-1.003.028-2.192-.975-2.656z" fill="#000000" data-original="#000000" class=""></path></g></g></svg>