<svg xmlns="http://www.w3.org/2000/svg" version="1.1" xmlns:xlink="http://www.w3.org/1999/xlink" xmlns:svgjs="http://svgjs.com/svgjs" width="100" height="100" x="0" y="0" viewBox="0 0 512 512" style="enable-background:new 0 0 512 512" xml:space="preserve" class=""><g><path xmlns="http://www.w3.org/2000/svg" d="M456,464H392a8,8,0,0,0,0,16h64a8,8,0,0,0,0-16Z" fill="#cddc39" data-original="#000000" class=""></path><path xmlns="http://www.w3.org/2000/svg" d="M264,224a16,16,0,0,0,0,32H376a16,16,0,0,0,3.019-31.705l-21.362,21.362-11.314-11.314L356.686,224H339.314l-21.657,21.657-11.314-11.314L316.686,224H299.314l-21.657,21.657-11.314-11.314L276.686,224Z" fill="#cddc39" data-original="#000000" class=""></path><circle xmlns="http://www.w3.org/2000/svg" cx="184" cy="272" r="16" fill="#cddc39" data-original="#000000" class=""></circle><path xmlns="http://www.w3.org/2000/svg" d="M252.992,208H387.008A12.992,12.992,0,0,0,400,195.008v-4.381a46.324,46.324,0,0,0-13.675-32.988A62.566,62.566,0,0,1,368,113.373V99.314l-4.04,4.04C350.988,116.327,344.146,133.98,344,152.326A40.047,40.047,0,0,1,304,192a8,8,0,0,1-8-7.83c-.385-18.422-7.257-36.11-20.286-49.14l-1.525-1.524-6.757,13.515a44.112,44.112,0,0,1-14.881,16.892A27.8,27.8,0,0,0,240,186.944v8.064A12.992,12.992,0,0,0,252.992,208Z" fill="#cddc39" data-original="#000000" class=""></path><path xmlns="http://www.w3.org/2000/svg" d="M216,464H152a8,8,0,0,0,0,16h64a8,8,0,0,0,0-16Z" fill="#cddc39" data-original="#000000" class=""></path><path xmlns="http://www.w3.org/2000/svg" d="M184,240V32h-8a119.34,119.34,0,0,0-70.054,22.632L77.657,26.343a8,8,0,0,0-11.314,0l-32,32a8,8,0,0,0,0,11.314L66.85,102.164A120,120,0,0,0,152.1,269.617,32.036,32.036,0,0,1,184,240ZM51.313,64,72,43.313,93.565,64.879a120.9,120.9,0,0,0-18.73,22.643Z" fill="#cddc39" data-original="#000000" class=""></path><path xmlns="http://www.w3.org/2000/svg" d="M187.314,448h25.372l41.441-41.441a135.859,135.859,0,0,1-17.172-8.2Z" fill="#cddc39" data-original="#000000" class=""></path><path xmlns="http://www.w3.org/2000/svg" d="M424,280v-8H216a31.8,31.8,0,0,1-4.305,16H408v16H186.4A120.012,120.012,0,0,0,424,280Z" fill="#cddc39" data-original="#000000" class=""></path><path xmlns="http://www.w3.org/2000/svg" d="M420.686,448,371,398.314a135.362,135.362,0,0,1-17.148,8.224L395.314,448Z" fill="#cddc39" data-original="#000000" class=""></path></g></svg>