<svg xmlns="http://www.w3.org/2000/svg" version="1.1" xmlns:xlink="http://www.w3.org/1999/xlink" xmlns:svgjs="http://svgjs.com/svgjs" width="100" height="100" x="0" y="0" viewBox="0 0 64 64" style="enable-background:new 0 0 512 512" xml:space="preserve" class=""><g><linearGradient xmlns="http://www.w3.org/2000/svg" id="_Linear1" gradientUnits="userSpaceOnUse" x1="0" x2="64" y1="-244" y2="-244"><stop offset="0" stop-color="#006b01"></stop><stop offset="1" stop-color="#fefd19"></stop></linearGradient><g xmlns="http://www.w3.org/2000/svg" id="ICON" fill="url(#_Linear1)"><path d="m41.299 48.049c5.07-3.773 5.803-10.022 3.82-15.427-.182-.497-.722-.766-1.229-.612-.788.239-1.526.478-2.216.715-.522.179-.8.748-.621 1.27s.748.8 1.27.621c.391-.134.796-.268 1.218-.403 1.302 4.373.593 9.234-3.436 12.231-.442.329-.534.956-.205 1.399.33.443.956.535 1.399.206z" fill=""></path><path d="m27.756 47.467c-.619.641-1.405 1.297-2.422 1.971-.356.236-.522.672-.415 1.085s.464.712.89.746c5.383.421 9.513-.235 12.586-1.561.507-.219.74-.808.522-1.314-.219-.507-.808-.741-1.315-.522-1.858.802-4.137 1.322-6.885 1.476 1.331-.768 2.622-1.704 3.823-2.763 2.448-2.157 4.523-4.781 5.808-7.421-1.528 2.44-3.817 4.789-6.428 6.637-1.283.907-2.64 1.687-4.018 2.285 1.157-1.417 1.674-2.772 2.064-4.085.426-1.435.647-2.827 1.595-4.199.942-1.362 2.607-2.682 5.832-4.066.507-.218.742-.807.524-1.314-.217-.507-.806-.742-1.313-.524-2.635 1.131-4.355 2.252-5.521 3.372-.871-2.057-2.516-4.1-7.147-6.162-.505-.224-1.096.003-1.321.507-.224.505.003 1.096.507 1.321 4.359 1.94 5.669 3.769 6.347 5.708.052.15.101.3.148.45-.56.937-.872 1.878-1.145 2.828-.111.389-.214.781-.326 1.177-.03-.022-.059-.044-.089-.067-2.567-1.922-4.805-4.347-6.271-6.834 1.346 2.586 3.478 5.147 5.965 7.222.08.067.16.133.241.199-.217.696-.49 1.406-.919 2.134-3.381-.842-5.717-2.415-7.169-4.404-2.121-2.905-2.34-6.653-1.311-10.102.62.198 1.205.395 1.758.591.52.185 1.092-.087 1.277-.607s-.087-1.092-.607-1.277c-.848-.302-1.771-.605-2.777-.911-.507-.154-1.047.115-1.229.613-1.583 4.314-1.427 9.173 1.273 12.872 1.564 2.142 3.988 3.913 7.468 4.939z" fill=""></path><path d="m52.217 52.511c1.785-3.268 2.783-5.302 2.783-10.011 0-7.621-2.695-14.504-7.008-19.403-.365-.415-.997-.455-1.411-.09-.415.364-.455.997-.09 1.411 4.017 4.564 6.509 10.982 6.509 18.082 0 4.934-1.244 6.653-3.342 10.523-.168.31-.16.686.02.989.18.302.507.488.859.488h1.456c.241.003.427.202.587.441.267.399.42.953.42 1.559 0 .61-.151 1.166-.418 1.566-.158.237-.341.434-.582.434h-31c-.552 0-1 .448-1 1s.448 1 1 1h31c.713 0 1.386-.319 1.921-.906.636-.701 1.079-1.82 1.079-3.094 0-1.269-.444-2.386-1.082-3.087-.48-.528-1.072-.841-1.701-.902z" fill=""></path><circle cx="18" cy="59.5" r="1" fill=""></circle><path d="m24 17.185c-8.735 3.815-15 13.692-15 25.315 0 4.708.998 6.742 2.783 10.01-.632.058-1.224.369-1.704.896-.636.701-1.079 1.82-1.079 3.094s.443 2.393 1.079 3.094c.535.587 1.208.906 1.921.906h3c.552 0 1-.448 1-1s-.448-1-1-1h-3c-.241 0-.424-.197-.582-.434-.267-.4-.418-.956-.418-1.566s.151-1.166.418-1.566c.158-.237.341-.434.582-.434h1.463c.352 0 .679-.186.859-.488.18-.303.188-.679.02-.989-2.098-3.87-3.342-5.589-3.342-10.523 0-13.756 9.36-25 21-25 4.604 0 8.859 1.771 12.313 4.757.418.36 1.05.314 1.411-.103.361-.418.315-1.05-.103-1.411-1.71-1.478-3.6-2.684-5.621-3.564v-2.419c0-1.079-.577-2.064-1.495-2.596 1.243-2.074 1.877-4.416.952-7.455-.083-.272-.278-.496-.535-.616-.258-.12-.555-.124-.816-.012l-3.209 1.375s-9.191-1.935-9.191-1.935c-.38-.08-.772.068-1.006.379-.233.31-.265.728-.082 1.071l1.24 2.322s-7.174.207-7.174.207c-.505.015-.92.404-.967.906-.047.503.288.962.781 1.071 2.458.54 4.364 1.95 6.235 3.356-.45.526-.713 1.204-.716 1.926-.015.706-.017 1.602-.017 2.426zm14-.757v-1.668c0-.4-.238-.762-.606-.92-2.609-1.067-5.215-1.348-7.82-.857-.542.102-1.066-.256-1.168-.798s.256-1.066.798-1.168c2.464-.464 4.93-.331 7.398.42.924-1.449 1.513-3.049 1.197-5.048l-2.405 1.03c-.189.081-.399.102-.6.06 0 0-7.402-1.559-7.402-1.559l.99 1.855c.163.305.157.673-.017.972-.174.3-.49.488-.836.498 0 0-4.278.124-4.277.125 1.319.819 2.541 1.777 3.78 2.681.446.325.544.951.219 1.397-.138.189-.599.404-.629.417-.366.152-.605.51-.605.907v.021c-.011.484-.015 1.059-.016 1.639 1.916-.608 3.927-.932 5.999-.932 2.075 0 4.087.323 6 .928z" fill=""></path></g></g></svg>