<svg xmlns="http://www.w3.org/2000/svg" version="1.1" xmlns:xlink="http://www.w3.org/1999/xlink" xmlns:svgjs="http://svgjs.com/svgjs" width="100" height="100" x="0" y="0" viewBox="0 0 512 512" style="enable-background:new 0 0 512 512" xml:space="preserve" class=""><g><g xmlns="http://www.w3.org/2000/svg"><g><path d="m467.598 411.805c-12.539 9.287-27.442 14.195-43.098 14.195h-337c-39.977 0-72.5-32.523-72.5-72.5v-195c0-39.977 32.523-72.5 72.5-72.5h8.885c4.143 0 7.5-3.358 7.5-7.5s-3.357-7.5-7.5-7.5h-8.885c-48.248 0-87.5 39.252-87.5 87.5v195c0 48.248 39.252 87.5 87.5 87.5h337c18.894 0 36.884-5.927 52.025-17.14 3.328-2.465 4.028-7.162 1.563-10.491s-7.163-4.03-10.49-1.564z" fill="#ffffff" data-original="#000000" class=""></path><path d="m424.5 71h-296.115c-4.143 0-7.5 3.358-7.5 7.5s3.357 7.5 7.5 7.5h296.115c39.977 0 72.5 32.523 72.5 72.5v195c0 12.979-3.468 25.709-10.029 36.816-2.106 3.566-.923 8.166 2.644 10.272 1.197.708 2.511 1.043 3.808 1.043 2.565 0 5.065-1.317 6.465-3.687 7.924-13.415 12.112-28.784 12.112-44.444v-195c0-48.248-39.252-87.5-87.5-87.5z" fill="#ffffff" data-original="#000000" class=""></path><path d="m196.548 308.115c-4.143 0-7.5 3.358-7.5 7.5v9.935c0 7.089 3.686 13.402 9.858 16.887 3.003 1.696 6.274 2.542 9.542 2.542 3.449 0 6.893-.942 10.01-2.823l115.301-69.55c5.871-3.542 9.376-9.75 9.376-16.606s-3.505-13.064-9.376-16.606l-115.301-69.55c-6.069-3.66-13.38-3.766-19.552-.281-6.173 3.485-9.858 9.798-9.858 16.887v97.396c0 4.142 3.357 7.5 7.5 7.5s7.5-3.358 7.5-7.5v-97.396c0-2.314 1.562-3.446 2.233-3.826.671-.378 2.447-1.132 4.429.063l115.301 69.55c1.917 1.157 2.124 3.016 2.124 3.762s-.207 2.605-2.124 3.762l-115.301 69.55c-1.981 1.197-3.759.442-4.429.064-.672-.379-2.233-1.511-2.233-3.826v-9.935c0-4.141-3.358-7.499-7.5-7.499z" fill="#ffffff" data-original="#000000" class=""></path></g></g></g></svg>